<?xml version="1.0" standalone="no"?>
<!DOCTYPE svg PUBLIC "-//W3C//DTD SVG 20010904//EN"
 "http://www.w3.org/TR/2001/REC-SVG-20010904/DTD/svg10.dtd">
<svg version="1.0" xmlns="http://www.w3.org/2000/svg"
 width="1280.000000pt" height="906.000000pt" viewBox="0 0 1280.000000 906.000000"
 preserveAspectRatio="xMidYMid meet">
<g transform="translate(0.000000,906.000000) scale(0.100000,-0.100000)"
fill="#000000" stroke="none">
<path d="M8095 9048 c-153 -13 -1023 -67 -1260 -78 -599 -29 -995 -94 -2240
-369 -805 -177 -1006 -215 -1450 -275 -129 -17 -151 -10 -180 57 l-18 40 53
163 c51 158 53 165 39 201 -20 53 -72 86 -123 80 -65 -9 -87 -42 -146 -220
-44 -134 -56 -160 -76 -167 -31 -12 -39 -33 -23 -62 7 -13 12 -30 10 -38 -1
-8 -114 -359 -251 -780 -137 -421 -362 -1114 -500 -1540 -138 -426 -312 -960
-386 -1187 -74 -226 -134 -414 -134 -417 0 -3 -13 -12 -30 -21 -32 -17 -37
-34 -18 -65 10 -16 5 -41 -31 -152 -138 -428 -945 -2911 -1118 -3438 -112
-344 -207 -635 -210 -646 -13 -52 86 -144 141 -130 39 10 83 53 100 99 8 23
128 388 265 812 413 1274 1009 3112 1052 3243 33 99 45 123 62 127 12 4 29 18
38 33 8 15 39 40 68 56 45 24 57 27 77 17 21 -9 51 -3 187 40 910 284 2025
454 3422 519 242 11 893 30 1048 30 121 0 125 -11 30 -90 -127 -106 -305 -285
-334 -335 -35 -61 -38 -116 -8 -146 33 -33 176 -96 280 -124 174 -46 317 -59
629 -59 359 0 474 8 1465 108 788 80 1005 95 1450 103 211 4 398 1 520 -6 174
-11 392 -33 456 -47 16 -3 34 2 48 13 18 15 24 37 37 148 90 779 312 1459 671
2057 208 347 404 596 734 933 217 222 289 324 338 477 27 85 26 105 -2 170
-125 280 -729 343 -1862 192 -247 -32 -467 -69 -920 -154 -410 -77 -625 -113
-760 -129 -223 -27 -555 -40 -555 -23 0 4 18 52 40 106 85 207 105 305 147
706 5 54 -17 90 -75 119 -101 51 -417 73 -697 49z m-5088 -735 l26 -17 -7
-104 c-17 -266 -83 -712 -152 -1027 -186 -854 -532 -1738 -996 -2546 -53 -92
-98 -175 -100 -185 -3 -17 -102 -84 -124 -84 -7 0 -14 6 -17 13 -3 7 92 310
210 672 117 363 320 986 449 1385 498 1532 616 1895 621 1903 8 13 63 7 90
-10z"/>
</g>
</svg>
